<defs>
<font horiz-adv-x="803" ><font-face
    font-family="arial-narrow-bold"
    units-per-em="2048"
    panose-1="2 11 7 6 2 2 2 3 2 4"
    ascent="1916"
    descent="-434"
    alphabetic="0" />
<missing-glyph horiz-adv-x="467" d="M44 0V1280H433V0H44ZM91 53H387V1237H91V53Z" />
<glyph unicode=" " glyph-name="space" horiz-adv-x="467" />
<glyph unicode="!" glyph-name="exclam" horiz-adv-x="559" d="M210 378L150 1122V1466H399V1122L340 378H210ZM160 0V281H390V0H160Z" />
<glyph unicode="&quot;" glyph-name="quotedbl" horiz-adv-x="797" d="M135 945L92 1218V1466H343V1218L305 945H135ZM506 945L462 1218V1466H713V1218L675 945H506Z" />
<glyph unicode="#" glyph-name="numbersign" horiz-adv-x="934" d="M126 365H15V585H163L212 880H15V1101H249L313 1491H497L433 1101H613L677 1491H867L801 1101H915V880H765L715 585H915V365H679L613 -25H430L494 365H312L247 -25H62L126 365ZM396 880L348 585H530L578
880H396Z" />
<glyph unicode="$" glyph-name="dollar" horiz-adv-x="934" d="M402 217V636Q91 744 91 1081Q91 1253 178 1361T402 1485V1584H520V1485Q647 1466 726 1379T826 1137L619 1104Q600 1223 520 1264V873Q711 810 779 718Q860 608 860 439Q860 251 768 130T520 -18V-205H402V-23Q107
20 58 411L272 439Q285 360 321 302T402 217ZM402 1267Q356 1248 326 1201T296 1097Q296 977 402 921V1267ZM520 203Q580 216 619 270T659 402Q659 544 520 593V203Z" />
<glyph unicode="%" glyph-name="percent" horiz-adv-x="1493" d="M73 1104Q73 1305 145 1398T336 1491Q459 1491 531 1398T603 1104Q603 903 531 810T340 717Q218 717 146 809T73 1104ZM253 1106Q253 966 276 922T336 878Q374 878 397 922T420 1106Q420 1246 397
1290T337 1334Q299 1334 276 1290T253 1106ZM512 -56H341L982 1491H1147L512 -56ZM884 329Q884 530 956 623T1149 716Q1270 716 1342 623T1414 329Q1414 128 1342 35T1151 -59Q1029 -59 957 34T884 329ZM1064 330Q1064 190 1086 146T1147 102Q1185 102 1208 146T1231
330Q1231 470 1208 514T1148 558Q1109 558 1087 514T1064 330Z" />
<glyph unicode="&amp;" glyph-name="ampersand" horiz-adv-x="1212" d="M1186 179L1046 -38Q944 22 849 130Q774 47 692 11T500 -26Q283 -26 179 106T74 402Q74 685 348 851Q225 1027 225 1173Q225 1314 317 1402T561 1491Q708 1491 800 1399T893 1158Q893 1063
847 984T674 807L841 538Q869 600 892 705L1100 647Q1052 433 996 345Q1034 302 1095 249T1186 179ZM559 976L621 1034Q690 1099 690 1162Q690 1220 655 1256T567 1293Q515 1293 483 1261T450 1183Q450 1130 502 1056L559 976ZM468 671Q391 623 351 555T310 411Q310
317 360 262T490 206Q593 206 703 318L468 671Z" />
<glyph unicode="&apos;" glyph-name="quotesingle" horiz-adv-x="399" d="M118 945L75 1218V1466H326V1218L288 945H118Z" />
<glyph unicode="(" glyph-name="parenleft" horiz-adv-x="559" d="M502 -431H344Q220 -206 154 45T87 533Q87 788 154 1030T347 1491H504Q389 1179 349 969T308 525Q308 283 365 13Q405 -177 502 -431Z" />
<glyph unicode=")" glyph-name="parenright" horiz-adv-x="559" d="M57 -431Q154 -179 193 8Q251 280 251 525Q251 759 211 969T55 1491H212Q341 1265 406 1025T472 546Q472 306 407 53T215 -431H57Z" />
<glyph unicode="*" glyph-name="asterisk" horiz-adv-x="653" d="M201 792L77 909Q116 963 153 1008L232 1102Q212 1106 114 1135Q46 1156 23 1166L71 1342Q175 1290 263 1225Q243 1386 244 1491H389Q389 1420 367 1223L438 1262Q513 1303 574 1332L618 1151Q526
1126 407 1102L552 900L427 799L315 1022Q269 919 201 792Z" />
<glyph unicode="+" glyph-name="plus" horiz-adv-x="981" d="M384 211V592H69V855H384V1236H594V855H910V592H594V211H384Z" />
<glyph unicode="," glyph-name="comma" horiz-adv-x="467" d="M115 281H345V80Q345 -91 305 -174Q256 -277 141 -327L96 -211Q164 -183 194 -136T226 0H115V281Z" />
<glyph unicode="-" glyph-name="hyphen" horiz-adv-x="559" d="M53 391V672H506V391H53Z" />
<glyph unicode="." glyph-name="period" horiz-adv-x="467" d="M121 0V281H352V0H121Z" />
<glyph unicode="/" glyph-name="slash" horiz-adv-x="467" d="M-2 -25L296 1491H469L168 -25H-2Z" />
<glyph unicode="0" glyph-name="zero" horiz-adv-x="934" d="M461 1472Q636 1472 744 1306T852 723Q852 308 744 142T462 -25Q287 -25 179 140T71 726Q71 1139 179 1305T461 1472ZM461 1239Q393 1239 353 1149T312 723Q312 387 352 298T461 208Q530 208 570 298T610
723Q610 1059 570 1149T461 1239Z" />
<glyph unicode="1" glyph-name="one" horiz-adv-x="934" d="M661 0H431V1059Q302 914 133 846V1101Q229 1140 332 1240T475 1472H661V0Z" />
<glyph unicode="2" glyph-name="two" horiz-adv-x="934" d="M850 261V0H42Q55 148 121 281T380 632Q532 805 567 866Q619 955 619 1045Q619 1141 576 1190T463 1239Q310 1239 298 1010L69 1038Q90 1262 193 1367T469 1472Q658 1472 754 1349T850 1067Q850 977
826 893T750 723T580 504Q469 379 440 339T392 261H850Z" />
<glyph unicode="3" glyph-name="three" horiz-adv-x="934" d="M63 389L286 422Q295 318 343 263T456 208Q527 208 576 273T625 453Q625 560 578 621T464 682Q420 682 359 661L384 890Q473 888 525 938Q576 988 576 1079Q576 1155 539 1198T444 1241Q386 1241 344
1192T293 1045L80 1089Q113 1290 209 1381T451 1472Q615 1472 711 1355T808 1096Q808 1000 765 923T634 788Q735 761 798 669T862 439Q862 238 743 107T458 -25Q300 -25 191 86T63 389Z" />
<glyph unicode="4" glyph-name="four" horiz-adv-x="934" d="M523 0V295H31V541L552 1472H746V542H895V295H746V0H523ZM523 542V1043L247 542H523Z" />
<glyph unicode="5" glyph-name="five" horiz-adv-x="934" d="M75 377L305 406Q314 310 364 255T474 200Q545 200 596 270T647 487Q647 625 597 691T468 757Q369 757 290 650L103 683L221 1446H830V1183H396L359 934Q437 981 517 981Q659 981 758 869Q883 726 883
492Q883 299 777 137T472 -25Q312 -25 205 79T75 377Z" />
<glyph unicode="6" glyph-name="six" horiz-adv-x="934" d="M852 1107L629 1077Q613 1241 498 1241Q423 1241 374 1159T311 828Q354 890 407 921T524 952Q665 952 770 821T875 471Q875 239 764 107T489 -25Q309 -25 191 146T72 715Q72 1118 195 1295T511 1472Q644
1472 735 1382T852 1107ZM331 494Q331 355 382 282T500 208Q564 208 606 269T649 469Q649 613 603 679T489 745Q423 745 377 682T331 494Z" />
<glyph unicode="7" glyph-name="seven" horiz-adv-x="934" d="M71 1185V1446H859V1242Q762 1125 663 910T509 448T454 0H232Q240 312 336 623T595 1185H71Z" />
<glyph unicode="8" glyph-name="eight" horiz-adv-x="934" d="M270 791Q185 835 142 911T99 1094Q99 1267 197 1369T461 1472Q637 1472 729 1363T821 1096Q821 989 777 911T655 791Q758 741 809 651T860 428Q860 292 810 188T670 29T470 -26Q296 -26 183 94T69
419Q69 551 121 646T270 791ZM317 1074Q317 988 357 942T460 896Q523 896 564 942T605 1074Q605 1157 565 1203T463 1249Q399 1249 358 1203T317 1074ZM296 446Q296 328 346 264T466 200Q536 200 583 261T631 444Q631 549 583 610T463 671Q393 671 345 610T296
446Z" />
<glyph unicode="9" glyph-name="nine" horiz-adv-x="934" d="M76 339L299 369Q315 206 429 206Q506 206 555 287T618 618Q575 557 521 526T401 495Q264 495 159 626T53 974Q53 1206 164 1339T438 1472Q620 1472 738 1301T856 732Q856 328 733 151T414 -26Q278
-26 190 63T76 339ZM598 953Q598 1091 546 1165T428 1239Q364 1239 322 1178T279 975Q279 833 325 767T440 701Q505 701 551 764T598 953Z" />
<glyph unicode=":" glyph-name="colon" horiz-adv-x="559" d="M164 781V1062H395V781H164ZM164 0V281H395V0H164Z" />
<glyph unicode=";" glyph-name="semicolon" horiz-adv-x="559" d="M158 781V1062H388V781H158ZM158 281H388V80Q388 -91 348 -174Q299 -277 184 -327L139 -211Q207 -183 237 -135T269 0H158V281Z" />
<glyph unicode="&lt;" glyph-name="less" horiz-adv-x="981" d="M902 167L78 604V846L902 1281V996L328 728L902 450V167Z" />
<glyph unicode="=" glyph-name="equal" horiz-adv-x="981" d="M69 816V1074H910V816H69ZM69 372V631H910V372H69Z" />
<glyph unicode="&gt;" glyph-name="greater" horiz-adv-x="981" d="M77 166V449L653 725L77 998V1279L902 844V604L77 166Z" />
<glyph unicode="?" glyph-name="question" horiz-adv-x="1026" d="M616 378H407L406 442Q406 571 440 651T572 827Q681 935 703 975T725 1068Q725 1155 669 1211T526 1267Q341 1267 298 1020L87 1052Q96 1240 216 1360T519 1481Q704 1481 827 1360T950 1058Q950
966 907 884T722 658Q649 584 632 539T616 378ZM407 0V281H638V0H407Z" />
<glyph unicode="@" glyph-name="at" horiz-adv-x="1638" d="M1457 19H1631Q1544 -196 1360 -313T909 -431Q637 -431 449 -324T155 -11T50 486Q50 783 165 1020T466 1374T890 1492Q1093 1492 1250 1398T1498 1126T1589 721Q1589 460 1452 247Q1293 0 1046 0Q980
0 945 27T897 114Q801 0 674 0Q542 0 450 112T358 417Q358 607 429 772T596 1010T803 1084Q876 1084 930 1050T1019 948L1039 1059H1255L1132 342Q1120 273 1120 252Q1120 229 1129 217T1152 204Q1190 204 1252 260Q1335 334 1388 463T1441 730Q1441 898 1369 1034T1177
1239T887 1308Q685 1308 535 1213T292 920T199 469Q199 252 286 86T524 -163T893 -247Q1089 -247 1230 -181T1457 19ZM571 430Q571 301 614 242T721 183Q777 183 824 225Q885 279 929 409T974 671Q974 784 930 844T823 904Q722 904 659 790Q571 630 571 430Z" />
<glyph unicode="A" glyph-name="A" horiz-adv-x="1212" d="M1206 0H942L837 333H357L258 0H0L468 1466H725L1206 0ZM759 580L594 1124L431 580H759Z" />
<glyph unicode="B" glyph-name="B" horiz-adv-x="1212" d="M122 1466H603Q800 1466 880 1430T1015 1303T1070 1097Q1070 991 1023 906T901 779Q1008 741 1068 649T1129 425Q1129 265 1052 155T870 18Q797 0 531 0H122V1466ZM364 1222V883H524Q668 883 702 888Q764
898 799 940T834 1056Q834 1121 806 1161T737 1212T504 1222H364ZM364 639V247H589Q737 247 779 262T849 323T878 439Q878 511 848 557T767 621T560 639H364Z" />
<glyph unicode="C" glyph-name="C" horiz-adv-x="1212" d="M892 539L1127 448Q1072 202 944 89T629 -25Q394 -25 248 156Q80 365 80 720Q80 1095 249 1307Q396 1491 644 1491Q846 1491 982 1353Q1079 1255 1124 1062L884 992Q861 1111 793 1174T631 1238Q498 1238
414 1122T330 739Q330 462 412 345T625 228Q721 228 791 302T892 539Z" />
<glyph unicode="D" glyph-name="D" horiz-adv-x="1212" d="M121 1466H564Q732 1466 817 1429T975 1302T1088 1071T1129 718Q1129 528 1086 388T977 165T818 42T577 0H121V1466ZM363 1218V247H545Q662 247 714 269T800 335T856 476T878 729Q878 892 856 986T786
1134T670 1205Q619 1218 473 1218H363Z" />
<glyph unicode="E" glyph-name="E" horiz-adv-x="1120" d="M123 0V1466H1015V1218H365V893H969V646H365V247H1037V0H123Z" />
<glyph unicode="F" glyph-name="F" horiz-adv-x="1026" d="M124 0V1466H948V1218H366V871H869V623H366V0H124Z" />
<glyph unicode="G" glyph-name="G" horiz-adv-x="1307" d="M682 539V786H1205V202Q1126 109 981 42T690 -25Q512 -25 376 62T161 324T81 735Q81 977 161 1149T370 1406T678 1491Q893 1491 1022 1382T1189 1060L949 1005Q922 1118 850 1178T678 1238Q523 1238 427
1118T331 750Q331 485 435 347Q524 228 676 228Q747 228 823 261T960 353V539H682Z" />
<glyph unicode="H" glyph-name="H" horiz-adv-x="1212" d="M123 0V1466H365V889H841V1466H1084V0H841V641H365V0H123Z" />
<glyph unicode="I" glyph-name="I" horiz-adv-x="467" d="M115 0V1466H357V0H115Z" />
<glyph unicode="J" glyph-name="J" horiz-adv-x="934" d="M556 1466H799V538Q799 313 754 203T620 34T399 -25Q226 -25 128 94T29 453L258 485Q262 356 291 302Q330 228 408 228Q484 228 520 281T556 519V1466Z" />
<glyph unicode="K" glyph-name="K" horiz-adv-x="1212" d="M125 0V1466H367V815L858 1466H1185L732 895L1209 0H895L564 688L367 443V0H125Z" />
<glyph unicode="L" glyph-name="L" horiz-adv-x="1026" d="M129 0V1454H371V247H975V0H129Z" />
<glyph unicode="M" glyph-name="M" horiz-adv-x="1399" d="M119 0V1466H482L700 466L916 1466H1280V0H1055V1154L816 0H582L345 1154V0H119Z" />
<glyph unicode="N" glyph-name="N" horiz-adv-x="1212" d="M125 0V1466H361L853 487V1466H1079V0H835L351 956V0H125Z" />
<glyph unicode="O" glyph-name="O" horiz-adv-x="1307" d="M74 724Q74 986 151 1155T354 1408T657 1491Q915 1491 1077 1294T1240 733Q1240 365 1068 158Q917 -25 658 -25Q397 -25 246 156Q74 363 74 724ZM324 734Q324 481 420 355T658 228Q801 228 895 353T989
739Q989 994 898 1116T658 1238Q510 1238 417 1115T324 734Z" />
<glyph unicode="P" glyph-name="P" horiz-adv-x="1120" d="M122 0V1466H512Q730 1466 797 1445Q904 1411 973 1300T1043 1014Q1043 855 983 748T833 597T523 553H364V0H122ZM364 1218V802H498Q633 802 681 821T761 889T792 1011Q792 1084 760 1134T681 1201T482
1218H364Z" />
<glyph unicode="Q" glyph-name="Q" horiz-adv-x="1307" d="M1090 186Q1179 109 1284 62L1195 -147Q1141 -127 1089 -93Q1077 -86 926 38Q807 -25 654 -25Q394 -25 234 169T73 733Q73 1103 234 1297T658 1491Q917 1491 1077 1297T1238 733Q1238 554 1203 425T1090
186ZM895 353Q988 483 988 732Q988 990 895 1114T656 1238Q510 1238 417 1114T323 733Q323 472 416 347T649 221Q701 221 748 242Q672 302 598 334L666 503Q786 453 895 353Z" />
<glyph unicode="R" glyph-name="R" horiz-adv-x="1212" d="M123 0V1466H634Q830 1466 914 1427T1052 1290T1106 1056Q1106 884 1024 779T789 647Q867 591 918 525T1057 286L1203 0H914L738 319Q643 492 609 535T537 595T415 612H365V0H123ZM365 846H545Q710 846
755 860T828 919T856 1036Q856 1106 828 1148T752 1207Q718 1218 555 1218H365V846Z" />
<glyph unicode="S" glyph-name="S" horiz-adv-x="1120" d="M61 477L298 505Q338 224 560 224Q670 224 733 281T796 424Q796 474 774 509T707 566T489 642Q334 689 262 744T148 888T105 1081Q105 1201 159 1297T310 1442T547 1491Q759 1491 878 1376T1004 1047L761
1034Q745 1152 692 1199T541 1246Q443 1246 390 1205T337 1103Q337 1043 385 1002Q433 961 606 912Q789 859 870 801T995 650T1038 425Q1038 234 921 104T553 -26Q111 -26 61 477Z" />
<glyph unicode="T" glyph-name="T" horiz-adv-x="1026" d="M393 0V1218H36V1466H991V1218H635V0H393Z" />
<glyph unicode="U" glyph-name="U" horiz-adv-x="1212" d="M120 1466H362V672Q362 487 371 431Q387 334 447 281T607 228Q691 228 744 265T816 369T836 655V1466H1079V696Q1079 401 1048 270T906 57T614 -25Q426 -25 321 42T168 232T120 684V1466Z" />
<glyph unicode="V" glyph-name="V" horiz-adv-x="1120" d="M429 0L0 1466H263L567 381L861 1466H1119L689 0H429Z" />
<glyph unicode="W" glyph-name="W" horiz-adv-x="1585" d="M292 0L5 1466H254L434 459L654 1466H943L1154 442L1339 1466H1583L1291 0H1033L793 1096L555 0H292Z" />
<glyph unicode="X" glyph-name="X" horiz-adv-x="1120" d="M1 0L412 765L39 1466H323L564 995L800 1466H1081L708 754L1119 0H826L559 507L292 0H1Z" />
<glyph unicode="Y" glyph-name="Y" horiz-adv-x="1120" d="M438 0V617L-2 1466H282L565 886L843 1466H1122L680 615V0H438Z" />
<glyph unicode="Z" glyph-name="Z" horiz-adv-x="1026" d="M18 0V267L650 1218H89V1466H969V1236L311 247H995V0H18Z" />
<glyph unicode="[" glyph-name="bracketleft" horiz-adv-x="559" d="M119 -413V1466H527V1245H338V-192H527V-413H119Z" />
<glyph unicode="\" glyph-name="backslash" horiz-adv-x="467" d="M-2 1491H168L469 -25H296L-2 1491Z" />
<glyph unicode="]" glyph-name="bracketright" horiz-adv-x="559" d="M439 1466V-413H31V-192H220V1247H31V1466H439Z" />
<glyph unicode="^" glyph-name="asciicircum" horiz-adv-x="981" d="M95 692L403 1491H586L887 692H653L491 1181L330 692H95Z" />
<glyph unicode="_" glyph-name="underscore" horiz-adv-x="934" d="M-12 -154H947V-256H-12V-154Z" />
<glyph unicode="`" glyph-name="grave" horiz-adv-x="559" d="M407 1192H261L35 1491H293L407 1192Z" />
<glyph unicode="a" glyph-name="a" horiz-adv-x="934" d="M293 738L84 784Q122 945 209 1015T461 1086Q607 1086 684 1045T794 934T827 677L825 349Q825 211 836 144T877 0H649L619 116Q560 46 493 11T349 -24Q222 -24 141 61T60 289Q60 379 93 446T186 553T378
624Q538 661 601 693Q601 781 589 808T543 853T448 871Q386 871 351 843T293 738ZM601 510Q557 492 464 468Q357 440 324 406Q291 372 291 318Q291 257 327 216T419 174Q468 174 516 207T582 287T601 454V510Z" />
<glyph unicode="b" glyph-name="b" horiz-adv-x="1026" d="M110 0V1466H341V938Q394 1012 457 1049T594 1086Q748 1086 854 947T961 537Q961 267 852 122T596 -24Q521 -24 448 22T324 156V0H110ZM339 554Q339 417 365 345T439 236T540 198Q616 198 670 277T724
529Q724 710 670 790T531 871Q451 871 395 793T339 554Z" />
<glyph unicode="c" glyph-name="c" horiz-adv-x="934" d="M880 748L653 698Q628 865 496 865Q411 865 359 793T307 550Q307 361 359 283T498 205Q563 205 605 249T665 407L892 360Q822 -24 489 -24Q276 -24 173 138T70 528Q70 801 186 943T492 1086Q645 1086 741
1005T880 748Z" />
<glyph unicode="d" glyph-name="d" horiz-adv-x="1026" d="M920 0H705V156Q652 66 580 21T432 -24Q286 -24 178 121T69 537Q69 809 175 947T436 1086Q509 1086 572 1049T689 938V1466H920V0ZM305 554Q305 410 329 340T399 234T502 198Q578 198 634 280T690 527Q690
710 636 790T497 871Q417 871 361 792T305 554Z" />
<glyph unicode="e" glyph-name="e" horiz-adv-x="934" d="M626 338L855 291Q809 131 712 54T476 -24Q283 -24 178 105Q54 255 54 525Q54 791 179 951Q285 1086 453 1086Q640 1086 746 948Q868 790 868 482L867 450H290Q292 324 346 255T478 186Q589 186 626 338ZM639
622Q636 746 586 808T467 871Q394 871 344 806Q293 740 294 622H639Z" />
<glyph unicode="f" glyph-name="f" horiz-adv-x="559" d="M20 1062H148V1142Q148 1287 175 1352T264 1454T416 1491Q514 1491 608 1455L578 1259Q522 1275 471 1275Q422 1275 400 1247T378 1137V1062H550V841H378V0H148V841H20V1062Z" />
<glyph unicode="g" glyph-name="g" horiz-adv-x="1026" d="M99 -70L363 -109Q369 -167 399 -191T496 -216Q572 -216 619 -191Q652 -173 670 -131T688 17V172Q636 86 571 43T427 0Q282 0 183 131Q69 281 69 537Q69 809 176 947T437 1086Q518 1086 584 1043T703
913V1062H919V109Q919 -120 877 -223T748 -378T505 -431Q362 -431 276 -393T145 -280T99 -105V-70ZM305 553Q305 383 359 305T491 227Q574 227 633 306T692 546Q692 712 636 791T496 871Q414 871 360 793T305 553Z" />
<glyph unicode="h" glyph-name="h" horiz-adv-x="1026" d="M351 1466V927Q406 1007 472 1046T617 1086Q721 1086 791 1031T891 875Q913 801 913 623V0H683V561Q683 756 658 805Q623 871 539 871Q450 871 401 800T351 532V0H120V1466H351Z" />
<glyph unicode="i" glyph-name="i" horiz-adv-x="467" d="M121 1206V1466H352V1206H121ZM121 0V1062H352V0H121Z" />
<glyph unicode="j" glyph-name="j" horiz-adv-x="467" d="M116 1206V1466H347V1206H116ZM347 1062V33Q347 -184 323 -264T237 -387T84 -431Q15 -431 -76 -401L-36 -161Q-3 -170 21 -170Q81 -170 104 -122Q116 -96 116 49V1062H347Z" />
<glyph unicode="k" glyph-name="k" horiz-adv-x="934" d="M113 0V1466H344V688L613 1062H897L599 674L918 0H670L450 477L344 340V0H113Z" />
<glyph unicode="l" glyph-name="l" horiz-adv-x="467" d="M121 0V1466H352V0H121Z" />
<glyph unicode="m" glyph-name="m" horiz-adv-x="1493" d="M103 1062H315V917Q372 1002 440 1044T587 1086Q671 1086 732 1044T833 917Q891 1002 957 1044T1099 1086Q1188 1086 1252 1044T1350 922T1384 679V0H1153V607Q1153 766 1125 818T1031 871Q954 871 907
798T860 510V0H629V582Q629 755 610 805Q585 871 509 871Q458 871 415 837T353 738T334 516V0H103V1062Z" />
<glyph unicode="n" glyph-name="n" horiz-adv-x="1026" d="M913 0H682V542Q682 705 669 759T621 842T540 871Q482 871 435 834T369 730T350 481V0H119V1062H333V906Q390 996 461 1041T620 1086Q721 1086 790 1034T886 899T913 660V0Z" />
<glyph unicode="o" glyph-name="o" horiz-adv-x="1026" d="M67 546Q67 702 129 830T291 1022T516 1086Q726 1086 846 922T966 537Q966 373 904 241T740 43T517 -24Q323 -24 195 124T67 546ZM303 531Q303 370 366 288T518 205Q605 205 667 288T729 533Q729 691
666 774T515 857Q428 857 366 774T303 531Z" />
<glyph unicode="p" glyph-name="p" horiz-adv-x="1026" d="M114 1062H329V906Q373 990 445 1038T600 1086Q749 1086 856 944T964 541Q964 267 856 122T599 -24Q530 -24 471 9T345 131V-404H114V1062ZM342 549Q342 369 400 284T542 199Q621 199 675 277T729 534Q729
703 674 783T538 864Q454 864 398 786T342 549Z" />
<glyph unicode="q" glyph-name="q" horiz-adv-x="1026" d="M690 -404V130Q643 56 575 16T432 -24Q286 -24 181 122T75 543Q75 803 182 944T445 1086Q528 1086 593 1041T708 905V1062H920V-404H690ZM698 544Q698 709 643 787T506 866Q423 866 367 786T311 527Q311
352 365 275T498 198Q577 198 637 284T698 544Z" />
<glyph unicode="r" glyph-name="r" horiz-adv-x="653" d="M342 0H111V1062H325V911Q380 1017 423 1051T524 1086Q603 1086 675 1033L603 788Q546 834 495 834Q447 834 411 799T358 670T342 328V0Z" />
<glyph unicode="s" glyph-name="s" horiz-adv-x="934" d="M40 303L271 346Q301 179 457 179Q540 179 581 211T622 294Q622 329 604 349Q585 369 529 384Q245 459 168 527Q72 612 72 760Q72 908 166 997T439 1086Q610 1086 699 1020T824 805L607 756Q578 884 443
884Q358 884 322 860T286 796Q286 761 319 738Q352 714 524 666Q717 612 786 535Q854 458 854 330Q854 176 749 76T457 -24Q288 -24 181 59T40 303Z" />
<glyph unicode="t" glyph-name="t" horiz-adv-x="559" d="M519 1062V838H362V410Q362 271 369 249Q383 209 426 209Q458 209 518 236L538 18Q458 -24 357 -24Q269 -24 216 18T145 139Q131 197 131 375V838H25V1062H131V1273L362 1437V1062H519Z" />
<glyph unicode="u" glyph-name="u" horiz-adv-x="1026" d="M693 0V159Q645 73 567 25T404 -24Q318 -24 250 21T149 149T115 390V1062H346V574Q346 365 356 309T403 221T490 190Q548 190 597 230T661 334T677 614V1062H907V0H693Z" />
<glyph unicode="v" glyph-name="v" horiz-adv-x="934" d="M360 0L9 1062H251L415 520L462 339L511 520L677 1062H913L567 0H360Z" />
<glyph unicode="w" glyph-name="w" horiz-adv-x="1307" d="M284 0L8 1062H232L395 366L545 1062H767L912 366L1079 1062H1306L1026 0H805L655 683L507 0H284Z" />
<glyph unicode="x" glyph-name="x" horiz-adv-x="934" d="M10 0L324 547L23 1062H305L459 770L621 1062H891L596 559L919 0H636L459 329L279 0H10Z" />
<glyph unicode="y" glyph-name="y" horiz-adv-x="934" d="M11 1062H257L464 308L668 1062H906L599 40L540 -159Q501 -271 463 -323T365 -403T218 -431Q151 -431 87 -414L67 -194Q121 -207 164 -207Q230 -207 272 -163T342 -3L11 1062Z" />
<glyph unicode="z" glyph-name="z" horiz-adv-x="840" d="M28 0V219L355 676Q435 788 473 835Q433 832 367 831L60 829V1062H780V863L447 395L330 240Q426 247 449 247H806V0H28Z" />
<glyph unicode="{" glyph-name="braceleft" horiz-adv-x="653" d="M49 410V650Q119 654 154 683T209 779T229 1006Q229 1204 244 1278T293 1396T389 1465T566 1491H610V1252Q523 1252 496 1241T456 1204T442 1107Q442 986 433 829Q427 722 387 642Q358 584 288
530Q350 487 387 415T432 234Q442 86 442 -45Q442 -114 456 -140T498 -179T610 -191V-431H566Q450 -431 394 -409T300 -341T245 -224T228 20Q228 209 211 276T157 375T49 410Z" />
<glyph unicode="|" glyph-name="bar" horiz-adv-x="471" d="M145 -431V1491H328V-431H145Z" />
<glyph unicode="}" glyph-name="braceright" horiz-adv-x="653" d="M598 410Q528 406 493 377T438 281T418 55Q418 -143 403 -217T354 -335T258 -405T81 -431H37V-191Q121 -191 148 -179T190 -141T205 -47Q205 67 214 227Q221 340 259 413T359 530Q289 584 260
642Q221 720 214 830Q204 974 204 1107Q204 1178 191 1203T151 1240T37 1252V1491H81Q197 1491 253 1469T347 1402T401 1285T418 1041Q418 851 435 784T489 685T598 650V410Z" />
<glyph unicode="~" glyph-name="asciitilde" horiz-adv-x="981" d="M55 519V778Q159 916 297 916Q349 916 392 904T536 842Q662 780 702 780Q749 780 810 815T926 924V654Q880 596 799 551Q747 522 681 522Q640 522 601 533T477 591Q351 658 279 658Q164 658 55 519Z" />
<glyph unicode="&#xa0;" glyph-name="nbspace" horiz-adv-x="934" />
<glyph unicode="&#xa1;" glyph-name="exclamdown" horiz-adv-x="559" d="M400 1062V781H169V1062H400ZM350 678L409 -63V-407H160V-63L219 678H350Z" />
<glyph unicode="&#xa2;" glyph-name="cent" horiz-adv-x="934" d="M610 811L461 209Q479 205 498 205Q562 205 604 249T664 407L890 360Q821 -24 488 -24Q447 -24 405 -17L309 -403L210 -369L305 16Q198 73 134 204T69 534Q69 802 194 954Q302 1086 491 1086Q528
1086 568 1080L661 1456L761 1421L669 1050Q825 977 879 748L652 698Q643 769 610 811ZM514 864L495 865Q409 865 358 793T306 549Q306 355 367 269L514 864Z" />
<glyph unicode="&#xa3;" glyph-name="sterling" horiz-adv-x="934" d="M820 285L908 47Q805 -23 682 -23Q608 -23 488 19Q362 62 303 62Q203 62 99 -25L11 217Q97 292 140 382T184 561Q184 590 182 621H11V842H140Q106 961 106 1083Q106 1261 215 1376T488 1491Q642
1491 740 1396T863 1106L641 1066Q612 1267 482 1267Q419 1267 374 1215T329 1080Q329 979 370 842H626V621H408Q410 599 410 576Q410 499 386 432T284 255Q330 283 398 283Q428 283 454 278Q467 275 562 246Q616 229 652 229Q715 229 820 285Z" />
<glyph unicode="&#xa4;" glyph-name="currency" horiz-adv-x="934" d="M145 941L37 1072L173 1250L285 1114Q328 1143 373 1157T464 1171Q511 1171 555 1157T643 1114L753 1248L890 1079L781 946Q805 893 816 839T828 728Q828 673 817 619T781 510L891 377L755
206L643 342Q602 314 558 300T464 285Q418 285 374 299T287 341L181 210L41 378L148 510Q125 561 113 615T101 728Q101 786 112 839T145 941ZM298 728Q298 641 348 584T464 526Q530 526 580 583T630 728Q630 815 580 872T464 930Q398 930 348 873T298 728Z" />
<glyph unicode="&#xa5;" glyph-name="yen" horiz-adv-x="934" d="M346 284H42V470H346V614H42V800H270L1 1466H254L418 1040Q449 959 462 899Q478 966 506 1040L673 1466H926L654 800H885V614H577V470H885V284H577V0H346V284Z" />
<glyph unicode="&#xa6;" glyph-name="brokenbar" horiz-adv-x="471" d="M145 701V1491H328V701H145ZM145 -431V360H328V-431H145Z" />
<glyph unicode="&#xa7;" glyph-name="section" horiz-adv-x="934" d="M809 1154L584 1125Q577 1277 458 1277Q408 1277 379 1250T349 1183Q349 1140 377 1103Q404 1066 562 942Q716 821 770 760T850 631T876 485Q876 299 727 171Q777 115 801 52T826 -82Q826 -240
731 -335T474 -431Q318 -431 216 -337T95 -68L320 -35Q348 -216 480 -216Q532 -216 565 -183T599 -98Q599 -75 592 -55T569 -15Q539 23 356 163Q168 308 109 405T49 623Q49 839 201 945Q160 999 139 1055T118 1168Q118 1312 208 1401T448 1491Q600 1491 695 1402T809
1154ZM603 293Q675 372 675 438Q675 476 654 511T552 618L329 816Q299 795 275 752Q258 720 258 680Q258 579 369 488L603 293Z" />
<glyph unicode="&#xa8;" glyph-name="dieresis" horiz-adv-x="559" d="M4 1250V1491H202V1250H4ZM357 1250V1491H555V1250H357Z" />
<glyph unicode="&#xa9;" glyph-name="copyright" horiz-adv-x="1237" d="M620 1496Q780 1496 923 1401T1157 1126T1248 730Q1248 515 1158 335T923 59T620 -36Q461 -36 317 59T83 334T-8 730Q-8 945 82 1125T317 1401T620 1496ZM620 1345Q492 1345 377 1269T189
1048T116 730Q116 557 188 412T376 191T620 115Q748 115 863 191T1052 412T1125 730Q1125 903 1052 1048T864 1269T620 1345ZM773 616L905 562Q873 432 800 367T629 302Q494 302 403 411T312 724Q312 934 401 1044T631 1154Q832 1154 905 911L772 873Q730 1012
626 1012Q553 1012 505 944T456 731Q456 584 503 515T612 445Q733 445 773 616Z" />
<glyph unicode="&#xaa;" glyph-name="ordfeminine" horiz-adv-x="621" d="M209 1252L54 1290Q73 1394 132 1442T305 1491Q416 1491 476 1457Q522 1431 542 1371Q557 1328 557 1209V970Q557 866 562 831T581 761H426Q414 787 407 832Q371 788 327 766T230 743Q141
743 86 801T31 958Q31 1025 54 1070T119 1140T287 1195Q352 1211 390 1228Q387 1294 379 1307Q361 1334 307 1334Q264 1334 243 1318Q227 1306 209 1252ZM390 1095Q372 1082 313 1067Q242 1049 225 1032Q201 1007 201 974Q201 941 224 917T280 893Q327 893 358
934T390 1055V1095Z" />
<glyph unicode="&#xab;" glyph-name="guillemotleft" horiz-adv-x="934" d="M519 983L307 532L519 70H338L79 532L338 983H519ZM841 983L628 532L841 70H660L401 532L660 983H841Z" />
<glyph unicode="&#xac;" glyph-name="logicalnot" horiz-adv-x="981" d="M699 376V817H69V1074H910V376H699Z" />
<glyph unicode="&#xad;" glyph-name="hyphen" horiz-adv-x="559" d="M53 391V672H506V391H53Z" />
<glyph unicode="&#xae;" glyph-name="registered" horiz-adv-x="1237" d="M620 1496Q780 1496 923 1401T1157 1126T1248 730Q1248 515 1158 335T923 59T620 -36Q461 -36 317 59T83 334T-8 730Q-8 945 82 1125T317 1401T620 1496ZM621 1346Q493 1346 378 1270T190
1049T117 730Q117 557 189 412T378 190T621 113Q749 113 864 189T1053 411T1126 730Q1126 903 1053 1048T865 1270T621 1346ZM336 320V1133H472Q675 1133 712 1128Q785 1116 831 1058T877 905Q877 812 828 751T697 676Q737 657 763 621T839 484L917 320H750L694
452Q638 585 601 619T507 654H472V320H336ZM472 782H526Q637 782 662 790Q695 799 714 827T733 894Q733 933 714 959T661 996Q635 1004 526 1004H472V782Z" />
<glyph unicode="&#xaf;" glyph-name="overscore" horiz-adv-x="1024" d="M-12 1722H1036V1619H-12V1722Z" />
<glyph unicode="0;" glyph-name="degree" horiz-adv-x="819" d="M86 1172Q86 1305 179 1398T405 1491Q537 1491 630 1398T724 1172Q724 1040 631 947T405 853Q273 853 180 946T86 1172ZM252 1172Q252 1109 297 1064T405 1019Q468 1019 513 1064T558 1172Q558
1235 513 1280T405 1325Q342 1325 297 1280T252 1172Z" />
<glyph unicode="1;" glyph-name="plusminus" horiz-adv-x="1124" d="M434 356V737H50V1000H434V1381H690V1000H1075V737H690V356H434ZM50 0V263H1075V0H50Z" />
<glyph unicode="2;" glyph-name="twosuperior" horiz-adv-x="559" d="M518 885V727H20Q29 816 67 884T224 1065Q321 1157 341 1190T362 1259Q362 1299 340 1320T279 1341Q238 1341 217 1317T192 1226L36 1242Q47 1334 74 1381T156 1456T283 1484Q391 1484
454 1423T518 1268Q518 1221 503 1176T450 1081Q426 1047 328 954Q281 909 261 885H518Z" />
<glyph unicode="3;" glyph-name="threesuperior" horiz-adv-x="559" d="M32 946L183 966Q195 858 276 858Q315 858 340 887T365 966Q365 1011 341 1038T280 1065Q256 1065 206 1050L225 1196Q281 1195 309 1217Q336 1238 336 1275Q336 1306 318 1323T268 1341Q198
1341 187 1243L41 1269Q63 1376 107 1421Q169 1484 272 1484Q368 1484 430 1425T493 1280Q493 1238 473 1202T413 1136Q469 1112 496 1068T524 958Q524 856 453 786T275 715Q175 715 110 775T32 946Z" />
<glyph unicode="4;" glyph-name="acute" horiz-adv-x="559" d="M153 1192L266 1491H525L299 1192H153Z" />
<glyph unicode="5;" glyph-name="mu1" horiz-adv-x="1180" d="M111 1062H390V581Q390 373 432 298Q485 201 589 201Q645 201 695 237T769 337T793 578V1062H1077V0H815V128Q785 72 758 44T686 -5T602 -26Q531 -26 476 13Q437 42 390 128V-407H111V1062Z" />
<glyph unicode="6;" glyph-name="paragraph" horiz-adv-x="934" d="M520 -403H321V644Q172 657 85 762T-2 1052Q-2 1168 36 1257T132 1390T257 1454Q303 1466 436 1466H926V1205H833V-403H638V1205H520V-403Z" />
<glyph unicode="7;" glyph-name="middot" horiz-adv-x="559" d="M164 573V854H395V573H164Z" />
<glyph unicode="8;" glyph-name="cedilla" horiz-adv-x="559" d="M31 -403V-285Q115 -296 186 -296Q254 -296 288 -270T322 -202Q322 -165 295 -142T217 -118Q165 -118 110 -138L131 -39Q195 -12 271 -12Q365 -12 421 -64T478 -201Q478 -297 403 -358T191
-419Q85 -419 31 -403Z" />
<glyph unicode="9;" glyph-name="onesuperior" horiz-adv-x="559" d="M406 727H251V1240Q174 1176 75 1142V1297Q147 1321 202 1371T280 1484H406V727Z" />
<glyph unicode="a;" glyph-name="ordmasculine" horiz-adv-x="612" d="M21 1115Q21 1298 100 1394T306 1491Q430 1491 510 1394T590 1115Q590 933 511 837T306 740Q181 740 101 836T21 1115ZM194 1113Q194 1003 224 957T305 910Q352 910 382 957T413 1113Q413
1224 382 1270T302 1316Q255 1316 225 1270T194 1113Z" />
<glyph unicode="b;" glyph-name="guillemotright" horiz-adv-x="934" d="M409 70L621 522L409 983H590L849 522L590 70H409ZM87 70L300 522L87 983H268L527 522L268 70H87Z" />
<glyph unicode="c;" glyph-name="onequarter" horiz-adv-x="1401" d="M406 727H251V1240Q174 1176 75 1142V1297Q147 1321 202 1371T280 1484H406V727ZM409 -54H278L991 1484H1121L409 -54ZM1149 -42V104H854V245L1167 715H1295V249H1384V104H1295V-42H1149ZM1149
249V474L1000 249H1149Z" />
<glyph unicode="d;" glyph-name="onehalf" horiz-adv-x="1401" d="M406 727H251V1240Q174 1176 75 1142V1297Q147 1321 202 1371T280 1484H406V727ZM409 -54H278L991 1484H1121L409 -54ZM1358 116V-42H860Q869 47 907 115T1064 296Q1161 388 1181 421T1202
490Q1202 530 1180 551T1119 572Q1078 572 1057 548T1032 457L876 473Q887 565 914 612T996 687T1123 715Q1231 715 1294 654T1358 499Q1358 452 1343 407T1290 312Q1266 278 1168 185Q1121 140 1101 116H1358Z" />
<glyph unicode="e;" glyph-name="threequarters" horiz-adv-x="1401" d="M33 946L184 966Q196 858 277 858Q316 858 341 887T366 966Q366 1011 342 1038T281 1065Q257 1065 207 1050L226 1196Q282 1195 310 1217Q337 1238 337 1275Q337 1306 319 1323T269
1341Q199 1341 188 1243L42 1269Q64 1376 108 1421Q170 1484 273 1484Q369 1484 431 1425T494 1280Q494 1238 474 1202T414 1136Q470 1112 497 1068T525 958Q525 856 454 786T276 715Q176 715 111 775T33 946ZM429 -54H298L1011 1484H1141L429 -54ZM1150 -42V104H855V245L1168
715H1296V249H1385V104H1296V-42H1150ZM1150 249V474L1001 249H1150Z" />
<glyph unicode="f;" glyph-name="questiondown" horiz-adv-x="1026" d="M626 1062V781H395V1062H626ZM417 684H626L627 612Q627 494 592 412T460 234Q353 127 330 86T307 -12Q307 -93 364 -149T506 -205Q690 -205 735 42L947 9Q925 -194 808 -307T514 -420Q329
-420 206 -299T83 0Q83 100 132 186T312 404Q383 475 401 521T417 684Z" />
<glyph unicode="0;" glyph-name="Agrave" horiz-adv-x="1212" d="M1206 0H942L837 333H357L258 0H0L468 1466H725L1206 0ZM759 580L594 1124L431 580H759ZM730 1564H584L358 1863H616L730 1564Z" />
<glyph unicode="1;" glyph-name="Aacute" horiz-adv-x="1212" d="M1206 0H942L837 333H357L258 0H0L468 1466H725L1206 0ZM759 580L594 1124L431 580H759ZM477 1564L590 1863H849L623 1564H477Z" />
<glyph unicode="2;" glyph-name="Acircumflex" horiz-adv-x="1212" d="M1206 0H942L837 333H357L258 0H0L468 1466H725L1206 0ZM759 580L594 1124L431 580H759ZM326 1567L498 1862H711L881 1567H696L601 1716L513 1567H326Z" />
<glyph unicode="3;" glyph-name="Atilde" horiz-adv-x="1212" d="M1206 0H942L837 333H357L258 0H0L468 1466H725L1206 0ZM759 580L594 1124L431 580H759ZM418 1577H314L313 1610Q313 1720 355 1775T463 1831Q491 1831 516 1823T597 1785Q671 1745 707 1745Q764
1745 774 1832H880Q879 1696 839 1639T734 1581Q707 1581 681 1588Q662 1593 593 1625Q510 1664 475 1664Q450 1664 435 1645T418 1577Z" />
<glyph unicode="4;" glyph-name="Adieresis" horiz-adv-x="1212" d="M1206 0H942L837 333H357L258 0H0L468 1466H725L1206 0ZM759 580L594 1124L431 580H759ZM328 1621V1862H526V1621H328ZM681 1621V1862H879V1621H681Z" />
<glyph unicode="5;" glyph-name="Aring" horiz-adv-x="1212" d="M1206 0H942L837 333H357L258 0H0L468 1466H725L1206 0ZM759 580L594 1124L431 580H759ZM765 1714Q765 1630 717 1574T604 1518Q540 1518 492 1574T443 1714Q443 1799 491 1854T604 1910Q668
1910 716 1855T765 1714ZM677 1714Q677 1753 655 1778T604 1803Q575 1803 553 1778T531 1714Q531 1676 553 1651T604 1625Q633 1625 655 1650T677 1714Z" />
<glyph unicode="6;" glyph-name="AE" horiz-adv-x="1679" d="M-70 0L491 1466H1576V1218H981V892H1530V644H981V247H1598V0H739V345H322L199 0H-70ZM411 601H741V1244H647L411 601Z" />
<glyph unicode="7;" glyph-name="Ccedilla" horiz-adv-x="1212" d="M892 539L1127 448Q1072 202 944 89T629 -25Q394 -25 248 156Q80 365 80 720Q80 1095 249 1307Q396 1491 644 1491Q846 1491 982 1353Q1079 1255 1124 1062L884 992Q861 1111 793 1174T631
1238Q498 1238 414 1122T330 739Q330 462 412 345T625 228Q721 228 791 302T892 539ZM388 -415V-297Q472 -308 543 -308Q611 -308 645 -282T679 -214Q679 -177 652 -154T574 -130Q522 -130 467 -150L488 -51Q552 -24 628 -24Q722 -24 778 -76T835 -213Q835 -309
760 -370T548 -431Q442 -431 388 -415Z" />
<glyph unicode="8;" glyph-name="Egrave" horiz-adv-x="1120" d="M123 0V1466H1015V1218H365V893H969V646H365V247H1037V0H123ZM688 1564H542L316 1863H574L688 1564Z" />
<glyph unicode="9;" glyph-name="Eacute" horiz-adv-x="1120" d="M123 0V1466H1015V1218H365V893H969V646H365V247H1037V0H123ZM434 1564L547 1863H806L580 1564H434Z" />
<glyph unicode="a;" glyph-name="Ecircumflex" horiz-adv-x="1120" d="M123 0V1466H1015V1218H365V893H969V646H365V247H1037V0H123ZM283 1567L455 1862H668L838 1567H653L558 1716L470 1567H283Z" />
<glyph unicode="b;" glyph-name="Edieresis" horiz-adv-x="1120" d="M123 0V1466H1015V1218H365V893H969V646H365V247H1037V0H123ZM285 1621V1862H483V1621H285ZM638 1621V1862H836V1621H638Z" />
<glyph unicode="c;" glyph-name="Igrave" horiz-adv-x="467" d="M115 0V1466H357V0H115ZM364 1564H218L-8 1863H250L364 1564Z" />
<glyph unicode="d;" glyph-name="Iacute" horiz-adv-x="467" d="M115 0V1466H357V0H115ZM110 1564L223 1863H482L256 1564H110Z" />
<glyph unicode="e;" glyph-name="Icircumflex" horiz-adv-x="467" d="M115 0V1466H357V0H115ZM-41 1567L131 1862H344L514 1567H329L234 1716L146 1567H-41Z" />
<glyph unicode="f;" glyph-name="Idieresis" horiz-adv-x="467" d="M115 0V1466H357V0H115ZM-39 1621V1862H159V1621H-39ZM314 1621V1862H512V1621H314Z" />
<glyph unicode="&#xd0;" glyph-name="Eth" horiz-adv-x="1212" d="M122 1466H565Q732 1466 818 1429T975 1303T1088 1071T1129 716Q1129 528 1086 387T977 165T818 42T578 0H122V640H-3V826H122V1466ZM364 1218V826H621V640H364V247H546Q662 247 715 269T801 334T856
475T879 723Q879 898 855 991T783 1137T666 1206Q616 1218 473 1218H364Z" />
<glyph unicode="&#xd1;" glyph-name="Ntilde" horiz-adv-x="1212" d="M125 0V1466H361L853 487V1466H1079V0H835L351 956V0H125ZM418 1577H314L313 1610Q313 1720 355 1775T463 1831Q491 1831 516 1823T597 1785Q671 1745 707 1745Q764 1745 774 1832H880Q879
1696 839 1639T734 1581Q707 1581 681 1588Q662 1593 593 1625Q510 1664 475 1664Q450 1664 435 1645T418 1577Z" />
<glyph unicode="&#xd2;" glyph-name="Ograve" horiz-adv-x="1307" d="M74 724Q74 986 151 1155T354 1408T657 1491Q915 1491 1077 1294T1240 733Q1240 365 1068 158Q917 -25 658 -25Q397 -25 246 156Q74 363 74 724ZM324 734Q324 481 420 355T658 228Q801 228
895 353T989 739Q989 994 898 1116T658 1238Q510 1238 417 1115T324 734ZM784 1564H638L412 1863H670L784 1564Z" />
<glyph unicode="&#xd3;" glyph-name="Oacute" horiz-adv-x="1307" d="M74 724Q74 986 151 1155T354 1408T657 1491Q915 1491 1077 1294T1240 733Q1240 365 1068 158Q917 -25 658 -25Q397 -25 246 156Q74 363 74 724ZM324 734Q324 481 420 355T658 228Q801 228
895 353T989 739Q989 994 898 1116T658 1238Q510 1238 417 1115T324 734ZM530 1564L643 1863H902L676 1564H530Z" />
<glyph unicode="&#xd4;" glyph-name="Ocircumflex" horiz-adv-x="1307" d="M74 724Q74 986 151 1155T354 1408T657 1491Q915 1491 1077 1294T1240 733Q1240 365 1068 158Q917 -25 658 -25Q397 -25 246 156Q74 363 74 724ZM324 734Q324 481 420 355T658 228Q801
228 895 353T989 739Q989 994 898 1116T658 1238Q510 1238 417 1115T324 734ZM379 1567L551 1862H764L934 1567H749L654 1716L566 1567H379Z" />
<glyph unicode="&#xd5;" glyph-name="Otilde" horiz-adv-x="1307" d="M74 724Q74 986 151 1155T354 1408T657 1491Q915 1491 1077 1294T1240 733Q1240 365 1068 158Q917 -25 658 -25Q397 -25 246 156Q74 363 74 724ZM324 734Q324 481 420 355T658 228Q801 228
895 353T989 739Q989 994 898 1116T658 1238Q510 1238 417 1115T324 734ZM471 1577H367L366 1610Q366 1720 408 1775T516 1831Q544 1831 569 1823T650 1785Q724 1745 760 1745Q817 1745 827 1832H933Q932 1696 892 1639T787 1581Q760 1581 734 1588Q715 1593 646
1625Q563 1664 528 1664Q503 1664 488 1645T471 1577Z" />
<glyph unicode="&#xd6;" glyph-name="Odieresis" horiz-adv-x="1307" d="M74 724Q74 986 151 1155T354 1408T657 1491Q915 1491 1077 1294T1240 733Q1240 365 1068 158Q917 -25 658 -25Q397 -25 246 156Q74 363 74 724ZM324 734Q324 481 420 355T658 228Q801 228
895 353T989 739Q989 994 898 1116T658 1238Q510 1238 417 1115T324 734ZM381 1621V1862H579V1621H381ZM734 1621V1862H932V1621H734Z" />
<glyph unicode="&#xd7;" glyph-name="multiply" horiz-adv-x="981" d="M90 420L338 722L89 1025L241 1211L490 908L738 1210L887 1028L639 726L889 421L737 235L487 540L239 238L90 420Z" />
<glyph unicode="&#xd8;" glyph-name="Oslash" horiz-adv-x="1307" d="M1016 1359L1145 1536L1260 1414L1123 1226Q1238 1034 1238 722Q1238 414 1102 206Q951 -25 662 -25Q439 -25 301 100L169 -82L52 42L192 234Q131 336 106 442Q72 582 72 744Q72 1100 247 1310Q397
1491 655 1491Q871 1491 1016 1359ZM865 1153Q783 1239 656 1239Q509 1239 416 1116T323 735Q323 573 360 463L865 1153ZM955 996L451 305Q534 215 654 215Q799 215 893 342T988 733Q988 885 955 996Z" />
<glyph unicode="&#xd9;" glyph-name="Ugrave" horiz-adv-x="1212" d="M120 1466H362V672Q362 487 371 431Q387 334 447 281T607 228Q691 228 744 265T816 369T836 655V1466H1079V696Q1079 401 1048 270T906 57T614 -25Q426 -25 321 42T168 232T120 684V1466ZM730
1564H584L358 1863H616L730 1564Z" />
<glyph unicode="&#xda;" glyph-name="Uacute" horiz-adv-x="1212" d="M120 1466H362V672Q362 487 371 431Q387 334 447 281T607 228Q691 228 744 265T816 369T836 655V1466H1079V696Q1079 401 1048 270T906 57T614 -25Q426 -25 321 42T168 232T120 684V1466ZM476
1564L589 1863H848L622 1564H476Z" />
<glyph unicode="&#xdb;" glyph-name="Ucircumflex" horiz-adv-x="1212" d="M120 1466H362V672Q362 487 371 431Q387 334 447 281T607 228Q691 228 744 265T816 369T836 655V1466H1079V696Q1079 401 1048 270T906 57T614 -25Q426 -25 321 42T168 232T120 684V1466ZM325
1567L497 1862H710L880 1567H695L600 1716L512 1567H325Z" />
<glyph unicode="&#xdc;" glyph-name="Udieresis" horiz-adv-x="1212" d="M120 1466H362V672Q362 487 371 431Q387 334 447 281T607 228Q691 228 744 265T816 369T836 655V1466H1079V696Q1079 401 1048 270T906 57T614 -25Q426 -25 321 42T168 232T120 684V1466ZM327
1621V1862H525V1621H327ZM680 1621V1862H878V1621H680Z" />
<glyph unicode="&#xdd;" glyph-name="Yacute" horiz-adv-x="1120" d="M438 0V617L-2 1466H282L565 886L843 1466H1122L680 615V0H438ZM434 1564L547 1863H806L580 1564H434Z" />
<glyph unicode="&#xde;" glyph-name="Thorn" horiz-adv-x="1120" d="M122 0V1466H364V1190H512Q731 1190 798 1168Q904 1134 973 1024T1043 738Q1043 579 983 472T833 320T523 276H364V0H122ZM364 942V525H498Q645 525 688 542T761 610T792 734Q792 811 761 861T689
927T482 942H364Z" />
<glyph unicode="&#xdf;" glyph-name="germandbls" horiz-adv-x="1026" d="M114 0V952Q114 1147 138 1235Q173 1364 259 1427T473 1491Q632 1491 719 1409T806 1187Q806 1101 756 989Q703 871 703 841Q703 812 718 783T823 644Q906 543 936 470T967 317Q967 164
882 70T676 -24Q593 -24 521 27T410 165L571 280Q604 201 656 201Q688 201 712 230T736 304Q736 342 719 375T599 526Q460 688 460 780Q460 840 514 975Q555 1079 562 1107T570 1165Q570 1211 542 1241T471 1271Q430 1271 399 1244T356 1165T345 952V0H114Z" />
<glyph unicode="&#xe0;" glyph-name="agrave" horiz-adv-x="934" d="M293 738L84 784Q122 945 209 1015T461 1086Q607 1086 684 1045T794 934T827 677L825 349Q825 211 836 144T877 0H649L619 116Q560 46 493 11T349 -24Q222 -24 141 61T60 289Q60 379 93 446T186
553T378 624Q538 661 601 693Q601 781 589 808T543 853T448 871Q386 871 351 843T293 738ZM601 510Q557 492 464 468Q357 440 324 406Q291 372 291 318Q291 257 327 216T419 174Q468 174 516 207T582 287T601 454V510ZM586 1192H440L214 1491H472L586 1192Z" />
<glyph unicode="&#xe1;" glyph-name="aacute" horiz-adv-x="934" d="M293 738L84 784Q122 945 209 1015T461 1086Q607 1086 684 1045T794 934T827 677L825 349Q825 211 836 144T877 0H649L619 116Q560 46 493 11T349 -24Q222 -24 141 61T60 289Q60 379 93 446T186
553T378 624Q538 661 601 693Q601 781 589 808T543 853T448 871Q386 871 351 843T293 738ZM601 510Q557 492 464 468Q357 440 324 406Q291 372 291 318Q291 257 327 216T419 174Q468 174 516 207T582 287T601 454V510ZM352 1192L465 1491H724L498 1192H352Z" />
<glyph unicode="&#xe2;" glyph-name="acircumflex" horiz-adv-x="934" d="M293 738L84 784Q122 945 209 1015T461 1086Q607 1086 684 1045T794 934T827 677L825 349Q825 211 836 144T877 0H649L619 116Q560 46 493 11T349 -24Q222 -24 141 61T60 289Q60 379 93
446T186 553T378 624Q538 661 601 693Q601 781 589 808T543 853T448 871Q386 871 351 843T293 738ZM601 510Q557 492 464 468Q357 440 324 406Q291 372 291 318Q291 257 327 216T419 174Q468 174 516 207T582 287T601 454V510ZM191 1196L363 1491H576L746 1196H561L466
1345L378 1196H191Z" />
<glyph unicode="&#xe3;" glyph-name="atilde" horiz-adv-x="934" d="M293 738L84 784Q122 945 209 1015T461 1086Q607 1086 684 1045T794 934T827 677L825 349Q825 211 836 144T877 0H649L619 116Q560 46 493 11T349 -24Q222 -24 141 61T60 289Q60 379 93 446T186
553T378 624Q538 661 601 693Q601 781 589 808T543 853T448 871Q386 871 351 843T293 738ZM601 510Q557 492 464 468Q357 440 324 406Q291 372 291 318Q291 257 327 216T419 174Q468 174 516 207T582 287T601 454V510ZM290 1205H186L185 1238Q185 1348 227 1403T335
1459Q363 1459 388 1451T469 1413Q543 1373 579 1373Q636 1373 646 1460H752Q751 1324 711 1267T606 1209Q579 1209 553 1216Q534 1221 465 1253Q382 1292 347 1292Q322 1292 307 1273T290 1205Z" />
<glyph unicode="&#xe4;" glyph-name="adieresis" horiz-adv-x="934" d="M293 738L84 784Q122 945 209 1015T461 1086Q607 1086 684 1045T794 934T827 677L825 349Q825 211 836 144T877 0H649L619 116Q560 46 493 11T349 -24Q222 -24 141 61T60 289Q60 379 93 446T186
553T378 624Q538 661 601 693Q601 781 589 808T543 853T448 871Q386 871 351 843T293 738ZM601 510Q557 492 464 468Q357 440 324 406Q291 372 291 318Q291 257 327 216T419 174Q468 174 516 207T582 287T601 454V510ZM193 1250V1491H391V1250H193ZM546 1250V1491H744V1250H546Z"
/>
<glyph unicode="&#xe5;" glyph-name="aring" horiz-adv-x="934" d="M293 738L84 784Q122 945 209 1015T461 1086Q607 1086 684 1045T794 934T827 677L825 349Q825 211 836 144T877 0H649L619 116Q560 46 493 11T349 -24Q222 -24 141 61T60 289Q60 379 93 446T186
553T378 624Q538 661 601 693Q601 781 589 808T543 853T448 871Q386 871 351 843T293 738ZM601 510Q557 492 464 468Q357 440 324 406Q291 372 291 318Q291 257 327 216T419 174Q468 174 516 207T582 287T601 454V510ZM630 1342Q630 1258 582 1202T469 1146Q405
1146 357 1202T308 1342Q308 1427 356 1482T469 1538Q533 1538 581 1483T630 1342ZM542 1342Q542 1381 520 1406T469 1431Q440 1431 418 1406T396 1342Q396 1304 418 1279T469 1253Q498 1253 520 1278T542 1342Z" />
<glyph unicode="&#xe6;" glyph-name="ae" horiz-adv-x="1493" d="M1177 339L1403 290Q1309 -24 1019 -24Q833 -24 707 122Q646 57 554 17T369 -24Q234 -24 153 61T72 288Q72 395 122 477Q160 540 237 576Q286 600 470 646Q550 667 608 690Q608 771 595 802T548
852T465 871Q402 871 363 840T305 738L97 787Q139 948 229 1017T494 1086Q666 1086 760 988Q861 1086 998 1086Q1124 1086 1216 1021T1361 822T1414 448H835Q860 190 1016 190Q1135 190 1177 339ZM1187 624Q1181 722 1159 770T1097 845T1008 871Q924 871 880 794T838
624H1187ZM606 508Q402 441 388 434Q343 415 323 385T303 314Q303 253 339 214T431 174Q483 174 529 209T591 294T606 508Z" />
<glyph unicode="&#xe7;" glyph-name="ccedilla" horiz-adv-x="934" d="M880 748L653 698Q628 865 496 865Q411 865 359 793T307 550Q307 361 359 283T498 205Q563 205 605 249T665 407L892 360Q822 -24 489 -24Q276 -24 173 138T70 528Q70 801 186 943T492 1086Q645
1086 741 1005T880 748ZM251 -403V-285Q335 -296 406 -296Q474 -296 508 -270T542 -202Q542 -165 515 -142T437 -118Q385 -118 330 -138L351 -39Q415 -12 491 -12Q585 -12 641 -64T698 -201Q698 -297 623 -358T411 -419Q305 -419 251 -403Z" />
<glyph unicode="&#xe8;" glyph-name="egrave" horiz-adv-x="934" d="M626 338L855 291Q809 131 712 54T476 -24Q283 -24 178 105Q54 255 54 525Q54 791 179 951Q285 1086 453 1086Q640 1086 746 948Q868 790 868 482L867 450H290Q292 324 346 255T478 186Q589
186 626 338ZM639 622Q636 746 586 808T467 871Q394 871 344 806Q293 740 294 622H639ZM578 1192H432L206 1491H464L578 1192Z" />
<glyph unicode="&#xe9;" glyph-name="eacute" horiz-adv-x="934" d="M626 338L855 291Q809 131 712 54T476 -24Q283 -24 178 105Q54 255 54 525Q54 791 179 951Q285 1086 453 1086Q640 1086 746 948Q868 790 868 482L867 450H290Q292 324 346 255T478 186Q589
186 626 338ZM639 622Q636 746 586 808T467 871Q394 871 344 806Q293 740 294 622H639ZM344 1192L457 1491H716L490 1192H344Z" />
<glyph unicode="&#xea;" glyph-name="ecircumflex" horiz-adv-x="934" d="M626 338L855 291Q809 131 712 54T476 -24Q283 -24 178 105Q54 255 54 525Q54 791 179 951Q285 1086 453 1086Q640 1086 746 948Q868 790 868 482L867 450H290Q292 324 346 255T478 186Q589
186 626 338ZM639 622Q636 746 586 808T467 871Q394 871 344 806Q293 740 294 622H639ZM183 1196L355 1491H568L738 1196H553L458 1345L370 1196H183Z" />
<glyph unicode="&#xeb;" glyph-name="edieresis" horiz-adv-x="934" d="M626 338L855 291Q809 131 712 54T476 -24Q283 -24 178 105Q54 255 54 525Q54 791 179 951Q285 1086 453 1086Q640 1086 746 948Q868 790 868 482L867 450H290Q292 324 346 255T478 186Q589
186 626 338ZM639 622Q636 746 586 808T467 871Q394 871 344 806Q293 740 294 622H639ZM185 1250V1491H383V1250H185ZM538 1250V1491H736V1250H538Z" />
<glyph unicode="&#xec;" glyph-name="igrave" horiz-adv-x="467" d="M121 0V1062H352V0H121ZM609 1192H463L237 1491H495L609 1192Z" />
<glyph unicode="&#xed;" glyph-name="iacute" horiz-adv-x="467" d="M121 0V1062H352V0H121ZM376 1192L489 1491H748L522 1192H376Z" />
<glyph unicode="&#xee;" glyph-name="icircumflex" horiz-adv-x="467" d="M121 0V1062H352V0H121ZM215 1196L387 1491H600L770 1196H585L490 1345L402 1196H215Z" />
<glyph unicode="&#xef;" glyph-name="idieresis" horiz-adv-x="467" d="M121 0V1062H352V0H121ZM217 1250V1491H415V1250H217ZM570 1250V1491H768V1250H570Z" />
<glyph unicode="&#xf0;" glyph-name="eth" horiz-adv-x="1026" d="M272 1466H513Q559 1422 602 1377L750 1466L787 1368L669 1301Q819 1116 891 923T964 543Q964 278 834 127T511 -25Q324 -25 204 117Q68 278 68 533Q68 784 209 941Q317 1062 450 1062Q493 1062
532 1049T632 993Q583 1102 513 1210L307 1091L272 1187L451 1290Q370 1381 272 1466ZM308 530Q308 370 368 287T513 204Q599 204 661 287T724 520Q724 671 660 756T512 841Q429 841 369 761T308 530Z" />
<glyph unicode="&#xf1;" glyph-name="ntilde" horiz-adv-x="1026" d="M913 0H682V542Q682 705 669 759T621 842T540 871Q482 871 435 834T369 730T350 481V0H119V1062H333V906Q390 996 461 1041T620 1086Q721 1086 790 1034T886 899T913 660V0ZM337 1205H233L232
1238Q232 1348 274 1403T382 1459Q410 1459 435 1451T516 1413Q590 1373 626 1373Q683 1373 693 1460H799Q798 1324 758 1267T653 1209Q626 1209 600 1216Q581 1221 512 1253Q429 1292 394 1292Q369 1292 354 1273T337 1205Z" />
<glyph unicode="&#xf2;" glyph-name="ograve" horiz-adv-x="1026" d="M67 546Q67 702 129 830T291 1022T516 1086Q726 1086 846 922T966 537Q966 373 904 241T740 43T517 -24Q323 -24 195 124T67 546ZM303 531Q303 370 366 288T518 205Q605 205 667 288T729 533Q729
691 666 774T515 857Q428 857 366 774T303 531ZM633 1192H487L261 1491H519L633 1192Z" />
<glyph unicode="&#xf3;" glyph-name="oacute" horiz-adv-x="1026" d="M67 546Q67 702 129 830T291 1022T516 1086Q726 1086 846 922T966 537Q966 373 904 241T740 43T517 -24Q323 -24 195 124T67 546ZM303 531Q303 370 366 288T518 205Q605 205 667 288T729 533Q729
691 666 774T515 857Q428 857 366 774T303 531ZM400 1192L513 1491H772L546 1192H400Z" />
<glyph unicode="&#xf4;" glyph-name="ocircumflex" horiz-adv-x="1026" d="M67 546Q67 702 129 830T291 1022T516 1086Q726 1086 846 922T966 537Q966 373 904 241T740 43T517 -24Q323 -24 195 124T67 546ZM303 531Q303 370 366 288T518 205Q605 205 667 288T729
533Q729 691 666 774T515 857Q428 857 366 774T303 531ZM239 1196L411 1491H624L794 1196H609L514 1345L426 1196H239Z" />
<glyph unicode="&#xf5;" glyph-name="otilde" horiz-adv-x="1026" d="M67 546Q67 702 129 830T291 1022T516 1086Q726 1086 846 922T966 537Q966 373 904 241T740 43T517 -24Q323 -24 195 124T67 546ZM303 531Q303 370 366 288T518 205Q605 205 667 288T729 533Q729
691 666 774T515 857Q428 857 366 774T303 531ZM338 1205H234L233 1238Q233 1348 275 1403T383 1459Q411 1459 436 1451T517 1413Q591 1373 627 1373Q684 1373 694 1460H800Q799 1324 759 1267T654 1209Q627 1209 601 1216Q582 1221 513 1253Q430 1292 395 1292Q370
1292 355 1273T338 1205Z" />
<glyph unicode="&#xf6;" glyph-name="odieresis" horiz-adv-x="1026" d="M67 546Q67 702 129 830T291 1022T516 1086Q726 1086 846 922T966 537Q966 373 904 241T740 43T517 -24Q323 -24 195 124T67 546ZM303 531Q303 370 366 288T518 205Q605 205 667 288T729
533Q729 691 666 774T515 857Q428 857 366 774T303 531ZM241 1250V1491H439V1250H241ZM594 1250V1491H792V1250H594Z" />
<glyph unicode="&#xf7;" glyph-name="divide" horiz-adv-x="1124" d="M421 981V1262H702V981H421ZM49 592V855H1074V592H49ZM421 185V466H702V185H421Z" />
<glyph unicode="&#xf8;" glyph-name="oslash" horiz-adv-x="1026" d="M777 999L862 1119L954 1027L865 903Q911 837 941 738T971 533Q971 370 909 240T743 43T519 -24Q379 -24 267 60L172 -73L83 22L177 156Q72 313 72 539Q72 699 133 827T295 1021T521 1086Q668
1086 777 999ZM647 817Q592 871 522 871Q432 871 366 785T300 540Q300 440 324 362L647 817ZM717 695L396 242Q451 194 519 194Q612 194 677 279T742 523Q742 612 717 695Z" />
<glyph unicode="&#xf9;" glyph-name="ugrave" horiz-adv-x="1026" d="M693 0V159Q645 73 567 25T404 -24Q318 -24 250 21T149 149T115 390V1062H346V574Q346 365 356 309T403 221T490 190Q548 190 597 230T661 334T677 614V1062H907V0H693ZM628 1192H482L256 1491H514L628
1192Z" />
<glyph unicode="&#xfa;" glyph-name="uacute" horiz-adv-x="1026" d="M693 0V159Q645 73 567 25T404 -24Q318 -24 250 21T149 149T115 390V1062H346V574Q346 365 356 309T403 221T490 190Q548 190 597 230T661 334T677 614V1062H907V0H693ZM395 1192L508 1491H767L541
1192H395Z" />
<glyph unicode="&#xfb;" glyph-name="ucircumflex" horiz-adv-x="1026" d="M693 0V159Q645 73 567 25T404 -24Q318 -24 250 21T149 149T115 390V1062H346V574Q346 365 356 309T403 221T490 190Q548 190 597 230T661 334T677 614V1062H907V0H693ZM233 1196L405
1491H618L788 1196H603L508 1345L420 1196H233Z" />
<glyph unicode="&#xfc;" glyph-name="udieresis" horiz-adv-x="1026" d="M693 0V159Q645 73 567 25T404 -24Q318 -24 250 21T149 149T115 390V1062H346V574Q346 365 356 309T403 221T490 190Q548 190 597 230T661 334T677 614V1062H907V0H693ZM236 1250V1491H434V1250H236ZM589
1250V1491H787V1250H589Z" />
<glyph unicode="&#xfd;" glyph-name="yacute" horiz-adv-x="934" d="M11 1062H257L464 308L668 1062H906L599 40L540 -159Q501 -271 463 -323T365 -403T218 -431Q151 -431 87 -414L67 -194Q121 -207 164 -207Q230 -207 272 -163T342 -3L11 1062ZM342 1192L455
1491H714L488 1192H342Z" />
<glyph unicode="&#xfe;" glyph-name="thorn" horiz-adv-x="1026" d="M114 1466H345V938Q414 1024 472 1055T600 1086Q749 1086 856 944T964 541Q964 267 856 122T599 -24Q530 -24 471 9T345 131V-404H114V1466ZM343 554Q343 417 369 345T443 236T544 198Q620 198
674 277T728 529Q728 710 674 790T535 871Q455 871 399 793T343 554Z" />
<glyph unicode="&#xff;" glyph-name="ydieresis" horiz-adv-x="934" d="M11 1062H257L464 308L668 1062H906L599 40L540 -159Q501 -271 463 -323T365 -403T218 -431Q151 -431 87 -414L67 -194Q121 -207 164 -207Q230 -207 272 -163T342 -3L11 1062ZM188 1250V1491H386V1250H188ZM541
1250V1491H739V1250H541Z" />
</font>
</defs>
</svg>
